<svg viewBox="0 0 512 512" xmlns="http://www.w3.org/2000/svg"><path d="m0 398.226562v113.773438c6.882812-1.996094 114.070312-71.984375 241-5.738281v-122.9375c-131.578125-57.984375-238 14.039062-241 14.902343zm199.675781 15.261719-7.351562 29.09375c-36.855469-9.347656-75.792969-9.347656-112.648438 0l-7.351562-29.09375c41.660156-10.546875 85.691406-10.546875 127.351562 0zm0 0"/><path d="m271 383.324219v122.9375c126.976562-66.28125 234.003906 3.710937 241 5.738281v-113.773438c-3.089844-.886718-111.808594-71.820312-241-14.902343zm162.324219 59.257812c-36.855469-9.347656-76.792969-9.347656-113.648438 0l-7.351562-29.09375c41.660156-10.546875 86.691406-10.546875 128.351562 0zm0 0"/><path d="m0 107 256 105 256-105-256-107zm256 21.210938-21.210938-21.210938 21.210938-21.210938 21.210938 21.210938zm0 0"/><path d="m482 151.800781-30 12.351563v91.46875l-30 64.339844 45 42.039062 45-42.039062-30-64.339844zm0 0"/><path d="m392 265.773438v-76.917969l-136 55.589843-135-55.589843v76.917969l7.644531 4.308593c39.273438 22.089844 83.320313 33.132813 127.355469 33.132813s89.082031-11.042969 128.355469-33.132813zm0 0"/></svg>