<?xml version="1.0" encoding="utf-8"?>
<!-- Generator: Adobe Illustrator 16.0.0, SVG Export Plug-In . SVG Version: 6.00 Build 0)  -->
<!DOCTYPE svg PUBLIC "-//W3C//DTD SVG 1.1//EN" "http://www.w3.org/Graphics/SVG/1.1/DTD/svg11.dtd">
<svg version="1.1" id="Layer_1" xmlns="http://www.w3.org/2000/svg" xmlns:xlink="http://www.w3.org/1999/xlink" x="0px" y="0px"
	 width="640px" height="480px" viewBox="0 0 640 480" enable-background="new 0 0 640 480" xml:space="preserve">
<path fill="#FFFFFF" d="M489.688,0H150.313C111.545,0,80,31.545,80,70.313v339.375C80,448.455,111.545,480,150.313,480h339.375
	C528.454,480,560,448.455,560,409.688V70.313C560,31.545,528.454,0,489.688,0z M320.938,365.625
	c-69.789,0-126.563-56.773-126.563-126.563S251.148,112.5,320.938,112.5S447.5,169.273,447.5,239.063
	S390.727,365.625,320.938,365.625z M461.563,140.625c-23.262,0-42.188-18.926-42.188-42.188s18.926-42.188,42.188-42.188
	s42.188,18.926,42.188,42.188S484.824,140.625,461.563,140.625z"/>
<path fill="#FFFFFF" d="M461.563,84.375c-7.76,0-14.063,6.303-14.063,14.063s6.303,14.063,14.063,14.063s14.063-6.303,14.063-14.063
	S469.322,84.375,461.563,84.375z"/>
<path fill="#FFFFFF" d="M320.938,140.625c-54.272,0-98.438,44.165-98.438,98.438s44.165,98.438,98.438,98.438
	s98.438-44.165,98.438-98.438S375.21,140.625,320.938,140.625z"/>
</svg>
