<?xml version="1.0" encoding="UTF-8"?>
<svg xmlns="http://www.w3.org/2000/svg" xmlns:xlink="http://www.w3.org/1999/xlink" viewBox="0 0 96 96" width="96px" height="96px">
<g id="surface252529942">
<path style=" stroke:none;fill-rule:nonzero;fill:rgb(0%,0%,0%);fill-opacity:1;" d="M 12 12 L 12 84 L 84 84 L 84 12 Z M 36 68 L 26 68 L 26 40 L 36 40 Z M 30.800781 34.800781 C 27.601562 34.800781 25.601562 32.800781 25.601562 30 C 25.601562 27.199219 27.601562 25.199219 31.199219 25.199219 C 34.398438 25.199219 36.398438 27.199219 36.398438 30 C 36.398438 32.800781 34.398438 34.800781 30.800781 34.800781 Z M 72 68 L 62.398438 68 L 62.398438 52.800781 C 62.398438 48.398438 59.601562 47.601562 58.800781 47.601562 C 58 47.601562 54.398438 48.398438 54.398438 52.800781 C 54.398438 53.601562 54.398438 68 54.398438 68 L 44.398438 68 L 44.398438 40 L 54.398438 40 L 54.398438 44 C 55.601562 41.601562 58.398438 40 63.199219 40 C 68 40 72 44 72 52.800781 Z M 72 68 "/>
</g>
</svg>
