<?xml version="1.0" encoding="utf-8"?>
<!-- Generator: Adobe Illustrator 16.0.0, SVG Export Plug-In . SVG Version: 6.00 Build 0)  -->
<!DOCTYPE svg PUBLIC "-//W3C//DTD SVG 1.1//EN" "http://www.w3.org/Graphics/SVG/1.1/DTD/svg11.dtd">
<svg version="1.1" id="Layer_1" xmlns="http://www.w3.org/2000/svg" xmlns:xlink="http://www.w3.org/1999/xlink" x="0px" y="0px"
	 width="152.032px" height="150.407px" viewBox="0 0 152.032 150.407" enable-background="new 0 0 152.032 150.407"
	 xml:space="preserve">
<g>
	
		<rect x="16.131" y="14.996" transform="matrix(0.7071 -0.7071 0.7071 0.7071 -16.2342 40.7984)" fill="#FAFA2E" width="50" height="50"/>
	<path fill="none" stroke="#000000" d="M41.131,4.64"/>
	<path fill="none" stroke="#000000" d="M76.486,39.996"/>
	<path fill="none" stroke="#000000" d="M41.131,4.64"/>
	<line fill="none" stroke="#000000" stroke-width="0.5" x1="111.842" y1="4.64" x2="147.197" y2="39.996"/>
	<polyline fill="none" stroke="#000000" stroke-width="0.5" points="147.197,39.996 111.842,75.352 76.486,39.996 	"/>
	<path fill="none" stroke="#000000" d="M76.486,39.996"/>
	<line fill="none" stroke="#000000" stroke-width="0.5" x1="111.842" y1="75.351" x2="76.486" y2="110.707"/>
	<polygon fill="#818285" points="5.775,39.995 5.775,110.707 41.131,75.351 	"/>
	<polygon fill="none" stroke="#000000" stroke-width="0.5" points="147.197,39.996 147.197,110.708 111.842,75.352 	"/>
	<polyline fill="none" stroke="#000000" stroke-width="0.5" points="76.486,110.707 111.842,75.351 147.197,110.707 
		111.842,146.062 	"/>
	<polyline fill="#BCBDC0" points="76.486,110.707 41.131,146.062 5.774,110.707 41.131,75.351 	"/>
	<polygon fill="#FA2EBA" points="111.842,146.062 41.131,146.062 76.486,110.707 	"/>
	<line fill="none" stroke="#000000" stroke-width="0.5" x1="111.842" y1="4.64" x2="111.842" y2="146.062"/>
	<line fill="none" stroke="#000000" stroke-width="0.5" x1="76.486" y1="39.996" x2="147.197" y2="39.996"/>
	<line fill="none" stroke="#000000" stroke-width="0.5" x1="76.486" y1="110.707" x2="147.197" y2="110.708"/>
	<text transform="matrix(1 0 0 1 54.4414 80.6401)" font-family="'Century'" font-size="12">S.TRUC</text>
	<polygon fill="#A7A9AC" points="111.842,4.64 41.131,4.64 76.486,39.996 	"/>
</g>
</svg>
