<?xml version="1.0" encoding="utf-8"?>
<!-- Generator: Adobe Illustrator 16.0.0, SVG Export Plug-In . SVG Version: 6.00 Build 0)  -->
<!DOCTYPE svg PUBLIC "-//W3C//DTD SVG 1.1//EN" "http://www.w3.org/Graphics/SVG/1.1/DTD/svg11.dtd">
<svg version="1.1" id="Layer_1" xmlns="http://www.w3.org/2000/svg" xmlns:xlink="http://www.w3.org/1999/xlink" x="0px" y="0px"
	 width="277.486px" height="329.984px" viewBox="0 0 277.486 329.984" enable-background="new 0 0 277.486 329.984"
	 xml:space="preserve">
<path fill-rule="evenodd" clip-rule="evenodd" d="M242.702,282.575c-13.895,3.771-30.437,5.414-44.238,0.21
	c-11.28-4.255-19.416-12.373-25.032-22.788c-2.331,2.318-5.279,3.959-8.6,4.85c-1.871,0.502-2.664-2.392-0.797-2.893
	c4.74-1.272,8.403-4.143,10.437-8.644c0.181-0.399,0.455-0.623,0.76-0.72c0.69-3.382,0.535-6.799-3.143-8.361
	c-3.038-1.29-6.425-1.591-9.639-2.203c-5.358-1.021-10.547-2.735-13.563-7.256c-2.786,2.274-6.496,3.205-10.454,2.797
	c-1.904-0.196-1.924-3.198,0-3c3.442,0.355,6.905-0.341,9.242-2.614c0.089-0.627,0.564-1.135,1.113-1.332
	c0.329-0.489,0.62-1.027,0.864-1.619c0.302-0.731,0.978-1.021,1.613-0.988c1.594-2.938,1.135-5.033-1.854-7.415
	c-2.228-1.773-4.432-3.463-5.937-5.89c-4.61,3.059-8.811,6.729-14.089,8.794c-7.444,2.912-14.933,3.048-22.686,1.344
	c-1.89-0.415-1.088-3.307,0.797-2.893c7.923,1.741,16.02,1.462,23.323-2.383c5.531-2.912,10.055-7.244,15.615-10.069
	c0.759-0.385,0.743,0.251-0.073-1.081c-0.593-0.965-1.197-1.924-1.767-2.902c-1.649-2.834-3.71-5.157-5.807-7.647
	c-2.915-3.462-4.581-6.851-4.614-11.155c-3.733,3.1-7.905,4.308-9.188-2.917c-0.336-1.891,2.555-2.7,2.893-0.797
	c0.701,3.945,2.419,3.763,4.944,1.122c1.164-1.217,2.255-2.487,3.329-3.783c1.86-2.245,2.073-5.428,3.651-7.697
	c1.859-2.675,7.649-3.682,5.356-7.919c-1.567-2.896-4.484-4.809-7.274-6.408c-7.442-4.264-15.595-7.179-22.943-11.613
	c-6.481-3.911-11.091-8.265-12.286-15.993c-1.622-10.494-0.545-21.3,1.633-31.642c4.379-20.793,13.036-39.458,25.939-56.304
	c6.34-8.277,14.413-18.144,23.895-25.147C74.478,21.217,11.009,86.92,11.009,167.455c0,82.843,67.156,150,150,150
	c40.96,0,78.079-16.425,105.149-43.039C258.618,277.761,250.734,280.394,242.702,282.575z M100.523,145.362
	c-4.399,3.365-9.256,4.244-14.676,4.414c-8.104,0.255-13.222,2.329-17.453,9.714c-0.961,1.678-3.554,0.167-2.59-1.515
	c3.332-5.814,7.613-9.847,14.398-10.838c6.808-0.994,12.944,0.117,18.807-4.367C100.547,141.596,102.038,144.204,100.523,145.362z"
	/>
</svg>
