<?xml version="1.0" encoding="utf-8"?>
<!-- Generator: Adobe Illustrator 16.0.0, SVG Export Plug-In . SVG Version: 6.00 Build 0)  -->
<!DOCTYPE svg PUBLIC "-//W3C//DTD SVG 1.1//EN" "http://www.w3.org/Graphics/SVG/1.1/DTD/svg11.dtd">
<svg version="1.1" id="Layer_1" xmlns="http://www.w3.org/2000/svg" xmlns:xlink="http://www.w3.org/1999/xlink" x="0px" y="0px"
	 width="640px" height="480px" viewBox="0 0 640 480" enable-background="new 0 0 640 480" xml:space="preserve">
<path fill="#FFFFFF" d="M272.073,452.915c-20.757,0-42.122-1.681-63.615-5.05c-37.855-5.939-76.175-25.741-87.019-31.67
	l-28.44-15.549l30.791-10.126c33.659-11.067,54.133-17.934,79.479-28.686c-25.378-12.29-44.938-34.398-54.353-62.978l-7.163-21.745
	l5.874,0.897c-5.57-5.614-9.968-11.313-13.378-16.494c-12.125-18.417-18.545-40.921-17.179-60.206l1.348-18.981l11.363,4.402
	c-4.793-9.053-8.258-18.721-10.294-28.854c-4.962-24.712-0.81-50.965,11.697-73.923l9.898-18.171l13.239,15.901
	c41.869,50.295,94.9,80.131,157.84,88.865c-2.571-17.721-0.645-34.823,5.731-50.153c7.423-17.849,20.628-32.984,38.177-43.773
	c19.49-11.979,43.125-17.783,66.552-16.344c24.854,1.527,47.421,10.84,65.343,26.95c8.753-2.274,15.201-4.702,23.917-7.983
	c5.244-1.974,11.191-4.215,18.633-6.779l27.422-9.448l-17.882,51.072c1.18-0.099,2.396-0.184,3.666-0.238l29.282-1.326
	l-17.308,23.654c-0.992,1.354-1.245,1.739-1.597,2.271c-1.395,2.102-3.131,4.717-26.887,36.438
	c-5.947,7.943-8.917,18.289-8.364,29.136c2.105,41.221-2.952,78.516-15.04,110.845c-11.434,30.586-29.15,56.829-52.654,77.999
	c-29.085,26.191-66.171,44.125-110.233,53.295C319.307,450.659,296.096,452.915,272.073,452.915z"/>
</svg>
